<mxfile host="app.diagrams.net" modified="2023-04-04T03:15:43.180Z" agent="5.0 (Windows NT 10.0; Win64; x64) AppleWebKit/537.36 (KHTML, like Gecko) Chrome/111.0.0.0 Safari/537.36" etag="24YKi1wF3-e7I0XW_vCK" version="21.0.10" type="github">
  <diagram name="Page-1" id="fbcf5db9-b524-4cd4-e4f3-379dc89c3999">
    <mxGraphModel dx="1186" dy="727" grid="1" gridSize="10" guides="1" tooltips="1" connect="1" arrows="1" fold="1" page="1" pageScale="1" pageWidth="850" pageHeight="1100" background="none" math="0" shadow="0">
      <root>
        <mxCell id="0" />
        <mxCell id="1" parent="0" />
        <mxCell id="2a0f93b5c73ef8e7-3" value="1" style="text;html=1;strokeColor=none;fillColor=none;align=center;verticalAlign=middle;whiteSpace=wrap;fontSize=30;fontColor=#FFFFFF;" parent="1" vertex="1">
          <mxGeometry x="180" y="168" width="40" height="20" as="geometry" />
        </mxCell>
        <mxCell id="2a0f93b5c73ef8e7-7" value="3" style="text;html=1;strokeColor=none;fillColor=none;align=center;verticalAlign=middle;whiteSpace=wrap;fontSize=30;fontColor=#FFFFFF;" parent="1" vertex="1">
          <mxGeometry x="180" y="393" width="40" height="20" as="geometry" />
        </mxCell>
        <mxCell id="2a0f93b5c73ef8e7-9" value="4" style="text;html=1;strokeColor=none;fillColor=none;align=center;verticalAlign=middle;whiteSpace=wrap;fontSize=30;fontColor=#FFFFFF;" parent="1" vertex="1">
          <mxGeometry x="350" y="508" width="40" height="20" as="geometry" />
        </mxCell>
        <mxCell id="2a0f93b5c73ef8e7-11" value="5" style="text;html=1;strokeColor=none;fillColor=none;align=center;verticalAlign=middle;whiteSpace=wrap;fontSize=30;fontColor=#FFFFFF;" parent="1" vertex="1">
          <mxGeometry x="180" y="623" width="40" height="20" as="geometry" />
        </mxCell>
        <mxCell id="2a0f93b5c73ef8e7-13" value="6" style="text;html=1;strokeColor=none;fillColor=none;align=center;verticalAlign=middle;whiteSpace=wrap;fontSize=30;fontColor=#FFFFFF;" parent="1" vertex="1">
          <mxGeometry x="350" y="738" width="40" height="20" as="geometry" />
        </mxCell>
        <mxCell id="2a0f93b5c73ef8e7-15" value="7" style="text;html=1;strokeColor=none;fillColor=none;align=center;verticalAlign=middle;whiteSpace=wrap;fontSize=30;fontColor=#FFFFFF;" parent="1" vertex="1">
          <mxGeometry x="180" y="863" width="40" height="20" as="geometry" />
        </mxCell>
        <mxCell id="2a0f93b5c73ef8e7-17" value="8" style="text;html=1;strokeColor=none;fillColor=none;align=center;verticalAlign=middle;whiteSpace=wrap;fontSize=30;fontColor=#FFFFFF;" parent="1" vertex="1">
          <mxGeometry x="350" y="978" width="40" height="20" as="geometry" />
        </mxCell>
        <mxCell id="pThkogu9O8SvhyeV7pbS-2" style="edgeStyle=orthogonalEdgeStyle;rounded=0;orthogonalLoop=1;jettySize=auto;html=1;exitX=0.5;exitY=1;exitDx=0;exitDy=0;" edge="1" parent="1" source="pThkogu9O8SvhyeV7pbS-1">
          <mxGeometry relative="1" as="geometry">
            <mxPoint x="175" y="150" as="targetPoint" />
          </mxGeometry>
        </mxCell>
        <mxCell id="pThkogu9O8SvhyeV7pbS-1" value="数据源接入&lt;br style=&quot;font-size: 14px;&quot;&gt;（mysql、oracle、mq、kafka&lt;span style=&quot;background-color: initial; font-size: 14px;&quot;&gt;）&lt;/span&gt;" style="rounded=0;whiteSpace=wrap;html=1;hachureGap=4;fontFamily=Architects Daughter;fontSource=https%3A%2F%2Ffonts.googleapis.com%2Fcss%3Ffamily%3DArchitects%2BDaughter;fontSize=14;fillColor=default;" vertex="1" parent="1">
          <mxGeometry x="50" y="30" width="250" height="40" as="geometry" />
        </mxCell>
        <mxCell id="pThkogu9O8SvhyeV7pbS-5" style="edgeStyle=orthogonalEdgeStyle;rounded=0;orthogonalLoop=1;jettySize=auto;html=1;exitX=0.5;exitY=1;exitDx=0;exitDy=0;entryX=0.5;entryY=0;entryDx=0;entryDy=0;" edge="1" parent="1" source="pThkogu9O8SvhyeV7pbS-3" target="pThkogu9O8SvhyeV7pbS-4">
          <mxGeometry relative="1" as="geometry" />
        </mxCell>
        <mxCell id="pThkogu9O8SvhyeV7pbS-3" value="数据采集与计算" style="rounded=0;whiteSpace=wrap;html=1;hachureGap=4;fontFamily=Architects Daughter;fontSource=https%3A%2F%2Ffonts.googleapis.com%2Fcss%3Ffamily%3DArchitects%2BDaughter;fontSize=14;fillColor=default;" vertex="1" parent="1">
          <mxGeometry x="50" y="148" width="250" height="40" as="geometry" />
        </mxCell>
        <mxCell id="pThkogu9O8SvhyeV7pbS-6" style="edgeStyle=orthogonalEdgeStyle;rounded=0;orthogonalLoop=1;jettySize=auto;html=1;" edge="1" parent="1" source="pThkogu9O8SvhyeV7pbS-4">
          <mxGeometry relative="1" as="geometry">
            <mxPoint x="175" y="360" as="targetPoint" />
          </mxGeometry>
        </mxCell>
        <mxCell id="pThkogu9O8SvhyeV7pbS-4" value="&lt;p class=&quot;MsoNormal&quot;&gt;Greenplum&lt;span&gt;&amp;nbsp;&lt;font face=&quot;宋体&quot;&gt;C&lt;/font&gt;&lt;/span&gt;&lt;span&gt;onnctor连接器&lt;/span&gt;&lt;/p&gt;" style="rounded=0;whiteSpace=wrap;html=1;hachureGap=4;fontFamily=Architects Daughter;fontSource=https%3A%2F%2Ffonts.googleapis.com%2Fcss%3Ffamily%3DArchitects%2BDaughter;fontSize=14;fillColor=default;" vertex="1" parent="1">
          <mxGeometry x="50" y="250" width="250" height="50" as="geometry" />
        </mxCell>
        <mxCell id="pThkogu9O8SvhyeV7pbS-7" value="数据落地" style="rounded=0;whiteSpace=wrap;html=1;hachureGap=4;fontFamily=Architects Daughter;fontSource=https%3A%2F%2Ffonts.googleapis.com%2Fcss%3Ffamily%3DArchitects%2BDaughter;fontSize=14;fillColor=default;" vertex="1" parent="1">
          <mxGeometry x="50" y="360" width="260" height="40" as="geometry" />
        </mxCell>
        <mxCell id="pThkogu9O8SvhyeV7pbS-29" style="edgeStyle=orthogonalEdgeStyle;rounded=0;orthogonalLoop=1;jettySize=auto;html=1;exitX=0.5;exitY=1;exitDx=0;exitDy=0;entryX=0.5;entryY=0;entryDx=0;entryDy=0;" edge="1" parent="1" source="pThkogu9O8SvhyeV7pbS-8" target="pThkogu9O8SvhyeV7pbS-11">
          <mxGeometry relative="1" as="geometry" />
        </mxCell>
        <mxCell id="pThkogu9O8SvhyeV7pbS-8" value="编写对应sql任务" style="rounded=0;whiteSpace=wrap;html=1;hachureGap=4;fontFamily=Architects Daughter;fontSource=https%3A%2F%2Ffonts.googleapis.com%2Fcss%3Ffamily%3DArchitects%2BDaughter;fontSize=14;fillColor=default;" vertex="1" parent="1">
          <mxGeometry x="390" y="30" width="250" height="40" as="geometry" />
        </mxCell>
        <mxCell id="pThkogu9O8SvhyeV7pbS-30" style="edgeStyle=orthogonalEdgeStyle;rounded=0;orthogonalLoop=1;jettySize=auto;html=1;exitX=0.5;exitY=1;exitDx=0;exitDy=0;entryX=0.5;entryY=0;entryDx=0;entryDy=0;" edge="1" parent="1" source="pThkogu9O8SvhyeV7pbS-11" target="pThkogu9O8SvhyeV7pbS-15">
          <mxGeometry relative="1" as="geometry" />
        </mxCell>
        <mxCell id="pThkogu9O8SvhyeV7pbS-11" value="选择提交环境" style="rounded=0;whiteSpace=wrap;html=1;hachureGap=4;fontFamily=Architects Daughter;fontSource=https%3A%2F%2Ffonts.googleapis.com%2Fcss%3Ffamily%3DArchitects%2BDaughter;fontSize=14;fillColor=default;" vertex="1" parent="1">
          <mxGeometry x="390" y="120" width="250" height="42" as="geometry" />
        </mxCell>
        <mxCell id="pThkogu9O8SvhyeV7pbS-31" style="edgeStyle=orthogonalEdgeStyle;rounded=0;orthogonalLoop=1;jettySize=auto;html=1;exitX=0.5;exitY=1;exitDx=0;exitDy=0;entryX=0.5;entryY=0;entryDx=0;entryDy=0;" edge="1" parent="1" source="pThkogu9O8SvhyeV7pbS-15" target="pThkogu9O8SvhyeV7pbS-19">
          <mxGeometry relative="1" as="geometry" />
        </mxCell>
        <mxCell id="pThkogu9O8SvhyeV7pbS-15" value="设置运行参数" style="rounded=0;whiteSpace=wrap;html=1;hachureGap=4;fontFamily=Architects Daughter;fontSource=https%3A%2F%2Ffonts.googleapis.com%2Fcss%3Ffamily%3DArchitects%2BDaughter;fontSize=14;fillColor=default;" vertex="1" parent="1">
          <mxGeometry x="390" y="200" width="250" height="40" as="geometry" />
        </mxCell>
        <mxCell id="pThkogu9O8SvhyeV7pbS-32" style="edgeStyle=orthogonalEdgeStyle;rounded=0;orthogonalLoop=1;jettySize=auto;html=1;exitX=0.5;exitY=1;exitDx=0;exitDy=0;entryX=0.5;entryY=0;entryDx=0;entryDy=0;" edge="1" parent="1" source="pThkogu9O8SvhyeV7pbS-19" target="pThkogu9O8SvhyeV7pbS-25">
          <mxGeometry relative="1" as="geometry" />
        </mxCell>
        <mxCell id="pThkogu9O8SvhyeV7pbS-19" value="语法检验" style="rounded=0;whiteSpace=wrap;html=1;hachureGap=4;fontFamily=Architects Daughter;fontSource=https%3A%2F%2Ffonts.googleapis.com%2Fcss%3Ffamily%3DArchitects%2BDaughter;fontSize=14;fillColor=default;" vertex="1" parent="1">
          <mxGeometry x="390" y="280" width="250" height="40" as="geometry" />
        </mxCell>
        <mxCell id="pThkogu9O8SvhyeV7pbS-21" value="手动checkpoint" style="rounded=0;whiteSpace=wrap;html=1;hachureGap=4;fontFamily=Architects Daughter;fontSource=https%3A%2F%2Ffonts.googleapis.com%2Fcss%3Ffamily%3DArchitects%2BDaughter;fontSize=14;fillColor=default;" vertex="1" parent="1">
          <mxGeometry x="390" y="530" width="250" height="40" as="geometry" />
        </mxCell>
        <mxCell id="pThkogu9O8SvhyeV7pbS-35" style="edgeStyle=orthogonalEdgeStyle;rounded=0;orthogonalLoop=1;jettySize=auto;html=1;exitX=0.5;exitY=1;exitDx=0;exitDy=0;entryX=0.5;entryY=0;entryDx=0;entryDy=0;" edge="1" parent="1" source="pThkogu9O8SvhyeV7pbS-23" target="pThkogu9O8SvhyeV7pbS-21">
          <mxGeometry relative="1" as="geometry" />
        </mxCell>
        <mxCell id="pThkogu9O8SvhyeV7pbS-23" value="日志查看" style="rounded=0;whiteSpace=wrap;html=1;hachureGap=4;fontFamily=Architects Daughter;fontSource=https%3A%2F%2Ffonts.googleapis.com%2Fcss%3Ffamily%3DArchitects%2BDaughter;fontSize=14;fillColor=default;" vertex="1" parent="1">
          <mxGeometry x="390" y="450" width="250" height="40" as="geometry" />
        </mxCell>
        <mxCell id="pThkogu9O8SvhyeV7pbS-33" style="edgeStyle=orthogonalEdgeStyle;rounded=0;orthogonalLoop=1;jettySize=auto;html=1;exitX=0.5;exitY=1;exitDx=0;exitDy=0;entryX=0.5;entryY=0;entryDx=0;entryDy=0;" edge="1" parent="1" source="pThkogu9O8SvhyeV7pbS-25" target="pThkogu9O8SvhyeV7pbS-23">
          <mxGeometry relative="1" as="geometry" />
        </mxCell>
        <mxCell id="pThkogu9O8SvhyeV7pbS-25" value="运行" style="rounded=0;whiteSpace=wrap;html=1;hachureGap=4;fontFamily=Architects Daughter;fontSource=https%3A%2F%2Ffonts.googleapis.com%2Fcss%3Ffamily%3DArchitects%2BDaughter;fontSize=14;fillColor=default;" vertex="1" parent="1">
          <mxGeometry x="390" y="373" width="250" height="40" as="geometry" />
        </mxCell>
        <mxCell id="pThkogu9O8SvhyeV7pbS-44" value="1" style="text;html=1;strokeColor=none;fillColor=none;align=center;verticalAlign=middle;whiteSpace=wrap;fontSize=30;fontColor=#FFFFFF;" vertex="1" parent="1">
          <mxGeometry x="180" y="668" width="40" height="20" as="geometry" />
        </mxCell>
        <mxCell id="pThkogu9O8SvhyeV7pbS-45" value="3" style="text;html=1;strokeColor=none;fillColor=none;align=center;verticalAlign=middle;whiteSpace=wrap;fontSize=30;fontColor=#FFFFFF;" vertex="1" parent="1">
          <mxGeometry x="180" y="893" width="40" height="20" as="geometry" />
        </mxCell>
        <mxCell id="pThkogu9O8SvhyeV7pbS-53" style="edgeStyle=orthogonalEdgeStyle;rounded=0;orthogonalLoop=1;jettySize=auto;html=1;exitX=0.5;exitY=1;exitDx=0;exitDy=0;" edge="1" parent="1" source="pThkogu9O8SvhyeV7pbS-47">
          <mxGeometry relative="1" as="geometry">
            <mxPoint x="175.17647058823536" y="600" as="targetPoint" />
          </mxGeometry>
        </mxCell>
        <mxCell id="pThkogu9O8SvhyeV7pbS-47" value="建立ftp、sftp数据源" style="rounded=0;whiteSpace=wrap;html=1;hachureGap=4;fontFamily=Architects Daughter;fontSource=https%3A%2F%2Ffonts.googleapis.com%2Fcss%3Ffamily%3DArchitects%2BDaughter;fontSize=14;fillColor=default;" vertex="1" parent="1">
          <mxGeometry x="50" y="530" width="250" height="40" as="geometry" />
        </mxCell>
        <mxCell id="pThkogu9O8SvhyeV7pbS-54" style="edgeStyle=orthogonalEdgeStyle;rounded=0;orthogonalLoop=1;jettySize=auto;html=1;exitX=0.5;exitY=1;exitDx=0;exitDy=0;entryX=0.5;entryY=0;entryDx=0;entryDy=0;" edge="1" parent="1" source="pThkogu9O8SvhyeV7pbS-49" target="pThkogu9O8SvhyeV7pbS-51">
          <mxGeometry relative="1" as="geometry" />
        </mxCell>
        <mxCell id="pThkogu9O8SvhyeV7pbS-49" value="选择特殊的压缩文件" style="rounded=0;whiteSpace=wrap;html=1;hachureGap=4;fontFamily=Architects Daughter;fontSource=https%3A%2F%2Ffonts.googleapis.com%2Fcss%3Ffamily%3DArchitects%2BDaughter;fontSize=14;fillColor=default;" vertex="1" parent="1">
          <mxGeometry x="50" y="603" width="250" height="40" as="geometry" />
        </mxCell>
        <mxCell id="pThkogu9O8SvhyeV7pbS-58" style="edgeStyle=orthogonalEdgeStyle;rounded=0;orthogonalLoop=1;jettySize=auto;html=1;exitX=0.5;exitY=1;exitDx=0;exitDy=0;entryX=0.465;entryY=-0.087;entryDx=0;entryDy=0;entryPerimeter=0;" edge="1" parent="1" source="pThkogu9O8SvhyeV7pbS-51" target="pThkogu9O8SvhyeV7pbS-52">
          <mxGeometry relative="1" as="geometry" />
        </mxCell>
        <mxCell id="pThkogu9O8SvhyeV7pbS-51" value="&lt;p class=&quot;MsoNormal&quot;&gt;选择对应配置信息，支持动态参数&lt;/p&gt;" style="rounded=0;whiteSpace=wrap;html=1;hachureGap=4;fontFamily=Architects Daughter;fontSource=https%3A%2F%2Ffonts.googleapis.com%2Fcss%3Ffamily%3DArchitects%2BDaughter;fontSize=14;fillColor=default;" vertex="1" parent="1">
          <mxGeometry x="50" y="688" width="250" height="50" as="geometry" />
        </mxCell>
        <mxCell id="pThkogu9O8SvhyeV7pbS-59" style="edgeStyle=orthogonalEdgeStyle;rounded=0;orthogonalLoop=1;jettySize=auto;html=1;exitX=0.5;exitY=1;exitDx=0;exitDy=0;" edge="1" parent="1" source="pThkogu9O8SvhyeV7pbS-52">
          <mxGeometry relative="1" as="geometry">
            <mxPoint x="179.88235294117658" y="860" as="targetPoint" />
          </mxGeometry>
        </mxCell>
        <mxCell id="pThkogu9O8SvhyeV7pbS-52" value="选择落地数据源" style="rounded=0;whiteSpace=wrap;html=1;hachureGap=4;fontFamily=Architects Daughter;fontSource=https%3A%2F%2Ffonts.googleapis.com%2Fcss%3Ffamily%3DArchitects%2BDaughter;fontSize=14;fillColor=default;" vertex="1" parent="1">
          <mxGeometry x="50" y="780" width="260" height="40" as="geometry" />
        </mxCell>
        <mxCell id="pThkogu9O8SvhyeV7pbS-60" value="配置执行参数" style="rounded=0;whiteSpace=wrap;html=1;hachureGap=4;fontFamily=Architects Daughter;fontSource=https%3A%2F%2Ffonts.googleapis.com%2Fcss%3Ffamily%3DArchitects%2BDaughter;fontSize=14;fillColor=default;" vertex="1" parent="1">
          <mxGeometry x="50" y="863" width="260" height="40" as="geometry" />
        </mxCell>
      </root>
    </mxGraphModel>
  </diagram>
</mxfile>
